<svg width="640" height="780" viewBox="0 0 640 780" fill="none" xmlns="http://www.w3.org/2000/svg">
<g clip-path="url(#clip0_848_146)">
<path d="M368.254 731.154C369.222 690.683 213.786 682.788 135.947 683.899C69.2696 685.168 -63.8079 696.967 -62.6989 734.012C-61.3126 780.318 367.043 781.742 368.254 731.154Z" fill="#2C2926"/>
<path d="M297.267 733.107C297.633 729.636 286.434 670.923 280.789 642L259.275 646.338C268.43 676.065 287.105 735.71 288.57 736.481C290.401 737.445 296.809 737.445 297.267 733.107Z" fill="#FBF5EE"/>
<path d="M233.998 717.376C234.908 715.11 237.869 673.334 239.235 652.729L223.027 651.379C224.022 673.222 226.238 717.111 227.142 717.921C228.272 718.935 232.859 720.207 233.998 717.376Z" fill="#FBF5EE"/>
<path d="M-75 639.944C-75 621.004 67.1421 627 140 627C204.132 627 328 627.5 328 643C328 674.48 -75 679.294 -75 639.944Z" fill="#2C2926"/>
<path d="M-74.7253 635.873C-74.7253 621.769 67.7718 624.152 140.63 624.152H140.632C204.764 624.152 328.275 624.152 328.275 642.385C328.275 665.827 -74.7253 665.176 -74.7253 635.873Z" fill="#FBF5EE"/>
<path d="M175.009 641.388C175.746 633.753 199.873 633.833 211.845 634.827C222.743 633.435 244.629 632.799 244.998 641.388C245.458 652.125 174.088 650.932 175.009 641.388Z" fill="#2C2926"/>
<path d="M176.5 585C191.333 582 225.2 578 242 586C224.833 594 187.7 605 176.5 585Z" fill="#E0C3A0"/>
<path d="M189 636.5C186.6 630.5 179.667 599.667 176.5 585C205.5 605.5 237 585 243.5 586C243.5 595.025 237.608 624.051 234.132 638.413C233.752 639.982 232.462 641.167 230.857 641.348C216.933 642.915 191.249 642.121 189 636.5Z" fill="#FBF5EE"/>
<path d="M203 583.25C203 585.393 204.828 587 207.875 587C212.749 587 213.967 578.429 207.875 572C207.875 577.357 203 579.5 203 583.25Z" fill="white"/>
<path d="M50.0097 634.401C49.8568 643.595 87.2908 645.27 106.027 644.958C122.076 644.619 154.088 641.837 153.748 633.422C153.322 622.903 50.2007 622.907 50.0097 634.401Z" fill="#2C2926"/>
<path d="M-8.50306 449.128C-7.00306 454.628 22.9969 470.128 45.9969 474.628C62.3373 477.825 81.1505 502.918 92 520.5C93.3676 522.716 88.5 519.5 59 522.5C62.667 525.167 94.002 529.872 107.5 529C108.492 528.936 149.5 525 149.5 522.5C135.5 520 109.209 521.34 109.5 520.5C110.197 518.486 110.498 518.549 110.498 517.128C142.998 461.628 153.498 469.628 178.498 452.628C202.998 431.861 217.665 436.461 226.998 439.628C218.998 434.128 214.998 432.145 208.498 433.128C148.998 442.128 126.998 467.628 115.498 477.628C105.597 486.238 111.165 496.295 115.498 500.628C113.498 504.128 109.198 510.628 107.998 508.628C106.498 506.128 104.998 476.128 107.998 474.628C149.198 454.228 158.165 424.795 157.498 412.628C175.998 405.628 208.498 369.628 223.498 338.628C238.498 307.628 233.498 299.128 232.998 296.128C232.598 293.728 234.498 290.795 235.498 289.628C233.498 290.628 228.498 292.428 224.498 291.628C207.698 286.828 160.498 333.961 138.998 358.128C136.198 352.928 129.831 348.961 126.998 347.628C131.998 337.628 156.998 320.628 174.998 290.128C205.398 235.728 200.331 212.461 193.998 207.628C179.198 207.628 151.165 236.628 138.998 251.128C132.498 202.128 95.498 190.128 88.498 190.128C82.898 190.128 73.1647 195.128 68.998 197.628C66.498 194.461 58.598 185.928 46.998 177.128C32.498 166.128 -21.502 135.128 -23.502 182.628C-25.102 220.628 15.8314 264.795 36.498 282.128C40.898 301.328 65.3314 326.461 76.998 336.628C81.798 342.228 82.998 359.961 82.998 368.128C78.5981 372.928 75.498 381.461 74.498 385.128C-3.10195 293.928 -50.1686 288.961 -63.002 299.128C-37.802 352.328 35.498 391.795 67.998 403.628C70.1647 408.128 71.698 414.928 60.498 406.128C49.298 397.328 30.498 398.461 22.498 400.128C13.8314 394.795 -2.56446 394.128 -2.00195 400.128C-0.501953 416.128 41.998 444.128 57.998 445.628C73.998 447.128 90.498 464.628 94.998 472.628C99.498 480.628 100.498 520 96.9969 520C93.4958 520 88.998 507.628 85.498 495.128C81.998 482.628 53.998 466.128 38.998 459.128C23.998 452.128 14.4969 444.128 8.49693 444.128C2.49693 444.128 -10.0031 443.628 -8.50306 449.128Z" fill="#2C2926"/>
<path d="M56.3672 527.493C55.9315 522.976 54.9812 519.616 60.0332 520.843C68.1097 522.805 85.6003 526.922 103.774 526.922C121.143 526.922 141.261 522.755 149.336 520.843C152.5 520.094 151.444 524.557 151.307 528.437C150.902 539.893 149.816 561.616 147.011 583.537C144.603 602.355 142.254 621.515 141.418 630.653C140.899 636.322 136.538 636.69 129.965 637.002C121.319 637.412 108.873 637.873 96.5447 637.873C86.0433 637.873 75.322 636.688 70.5906 635.973C65.9115 635.266 66.3811 632.333 65.9761 628.245C64.4114 612.452 60.4238 571.98 58.28 548.2C57.3716 538.124 56.7681 531.649 56.3672 527.493Z" fill="#E0C3A0"/>
</g>
<defs>
<clipPath id="clip0_848_146">
<rect width="640" height="780" fill="white"/>
</clipPath>
</defs>
</svg>
