<svg width="640" height="780" viewBox="0 0 640 780" fill="none" xmlns="http://www.w3.org/2000/svg">
<g clip-path="url(#clip0_848_191)">
<path d="M701.5 839.5L-74 826.5C-74 826.5 49.5 770.038 127.5 755.019C187.388 743.487 238.434 720.177 258.91 709.973C265.08 706.898 272.3 705.992 279.157 706.708C296.391 708.508 339.212 710.403 439.5 705C588 697 744 705 744 705L701.5 839.5Z" fill="#E0C3A0"/>
<mask id="mask0_848_191" style="mask-type:alpha" maskUnits="userSpaceOnUse" x="-74" y="701" width="818" height="139">
<path d="M701.5 839.5L-74 826.5C-74 826.5 49.5 770.038 127.5 755.019C187.388 743.487 238.434 720.177 258.91 709.973C265.08 706.898 272.3 705.992 279.157 706.708C296.391 708.508 339.212 710.403 439.5 705C588 697 744 705 744 705L701.5 839.5Z" fill="#E0C3A0"/>
</mask>
<g mask="url(#mask0_848_191)">
<path d="M281 712.5L322 703.5H340L298.5 724.5L295 746.5L245 757L220.5 788.5L155 792.5L119.5 821.5L57 832L10.5 827.5L32 810.5L82.5 802.5L123.5 773L193 765L217.5 744.5L270.5 732.5L281 712.5Z" fill="#FBF5EE"/>
<path d="M322 729.5L365.5 703.5H385.5L346.5 738.5L340 769L288 793.5L281 821.5L182 827.5V816.5L250.5 802L270.5 773L322 758.5V729.5Z" fill="#FBF5EE"/>
<path d="M381 732.5L411 703.5H426.5L400 738.5L406.5 773L365.5 806L381 827.5H318.5L331.5 799L374.5 769L381 732.5Z" fill="#FBF5EE"/>
<path d="M431.5 732.5L455 699.5H480.5L457.5 736.5L470 769L455 799L470 821.5H423L414 799L438.5 765L431.5 732.5Z" fill="#FBF5EE"/>
<path d="M492 718L522 699.5H542.5L518 729.5L534 765L514.5 810.5L534 827.5L486.5 832.14V810.5L502.5 769L492 718Z" fill="#FBF5EE"/>
<path d="M552.5 724.5L568 699.5H598.5L577.5 724.5L590 753L585.5 802L595 821.5L564 832.14L552.5 799L564 762L552.5 724.5Z" fill="#FBF5EE"/>
<path d="M605.5 736.5L627 699.5H639.5V718L625 744L646.5 816.5L621 827.5L610.5 799L617.5 778.5L605.5 736.5Z" fill="#FBF5EE"/>
</g>
<path d="M232 708L238.5 715L241 713.5L236 705L232 708Z" fill="#E0C3A0"/>
<path d="M227.5 711.5L231 719.5H227.5L221 715L227.5 711.5Z" fill="#E0C3A0"/>
<path d="M215 717L218 725L214 727.5L208.5 720L215 717Z" fill="#E0C3A0"/>
<path d="M204.5 720L207 730L203.5 731L197.5 724L204.5 720Z" fill="#E0C3A0"/>
<path d="M192.5 723L196.5 734.5H192.5L186.5 726.5L192.5 723Z" fill="#E0C3A0"/>
<path d="M171.5 731L173 739L170 741.5L165 735L171.5 731Z" fill="#E0C3A0"/>
<path d="M159 733.5L160.5 743.5L156.5 744.5L151.5 736L159 733.5Z" fill="#E0C3A0"/>
<path d="M146.5 737L147 747L143.5 745.5L139 736L146.5 737Z" fill="#E0C3A0"/>
<path d="M136.5 739L137.5 748.5L133.5 750.5L130.5 741.5L136.5 739Z" fill="#E0C3A0"/>
<path d="M123 739L125 752L121.5 753.5L115.5 741.5L123 739Z" fill="#E0C3A0"/>
<path d="M110 745.5V755H106.5L102.5 748.5L110 745.5Z" fill="#E0C3A0"/>
<path d="M98.5 747L100 758L96.5 759L92.5 749.5L98.5 747Z" fill="#E0C3A0"/>
<path d="M88 747L90 760.5H86.5L81.5 749.5L88 747Z" fill="#E0C3A0"/>
<path d="M71.5 752L81.5 762L76.5 763L66 756L71.5 752Z" fill="#E0C3A0"/>
<path d="M64.5 759L67 766.5L64.5 768L60 762L64.5 759Z" fill="#E0C3A0"/>
<path d="M55 760.5L58.5 771L55 772L49 765L55 760.5Z" fill="#E0C3A0"/>
<path d="M45.5 766.5L47.5 774.5L44 775.5L40.5 769.5L45.5 766.5Z" fill="#E0C3A0"/>
<path d="M34.5 769.5L39.5 777L36 778L29 773.5L34.5 769.5Z" fill="#E0C3A0"/>
<path d="M24.5 771L29 781H26.5L20 774.5L24.5 771Z" fill="#E0C3A0"/>
<path d="M18.5 778L20 784.5L18.5 785.5L14.5 781L18.5 778Z" fill="#E0C3A0"/>
<path d="M8 779.5L10.5 787.5L8 788.5L4.5 782.5L8 779.5Z" fill="#E0C3A0"/>
<path d="M0.5 782L3 791.5L0.5 792.5L-4 784.5L0.5 782Z" fill="#E0C3A0"/>
<path d="M-7.5 786.5L-6 793.5L-7.5 796L-12.5 788.5L-7.5 786.5Z" fill="#E0C3A0"/>
<path d="M-14.5 792.5L-13.5 798.5L-15.5 800L-19.5 794.5L-14.5 792.5Z" fill="#E0C3A0"/>
<path d="M-27.5 792.5L-21.5 799.5L-24 801L-33.5 796.5L-27.5 792.5Z" fill="#E0C3A0"/>
<path d="M-32 799.5L-30 804L-32 805.5L-36 802.5L-32 799.5Z" fill="#E0C3A0"/>
<path d="M-43 802.5L-37.5 807L-39.5 808.5L-45.5 805.5L-43 802.5Z" fill="#E0C3A0"/>
<path d="M-49.5 806.5L-45 811.5L-47.5 812.5L-53.5 809.5L-49.5 806.5Z" fill="#E0C3A0"/>
<path d="M-58.5 811.5L-53 816.5L-55.5 818L-61.5 815.5L-58.5 811.5Z" fill="#E0C3A0"/>
<path d="M242 705L246.5 711.5H249L246.5 702L242 705Z" fill="#E0C3A0"/>
<path d="M246.5 698L254 708L255.5 705.5L251.5 697L246.5 698Z" fill="#E0C3A0"/>
<path d="M256.5 701.5L259.5 705.5L263 706.5L261 700L256.5 701.5Z" fill="#E0C3A0"/>
<path d="M184.5 737L180.5 738L174.5 726L181 724L184.5 737Z" fill="#E0C3A0"/>
<path d="M446.001 731.214C446.341 712.866 535.436 700.558 563.118 702.718C586.826 704.713 664.774 705.779 661.924 722.239C655.536 759.134 445.575 754.149 446.001 731.214Z" fill="#2C2926"/>
<path d="M570.665 60.1807C566.665 63.7807 567.665 68.014 568.665 69.6807L569.664 70.1807C574.663 70.1807 579.664 56.6807 587.164 59.1807C594.664 61.6807 589.664 79.1807 590.664 88.6807C591.464 96.2807 588.664 119.847 587.164 130.681C587.664 122.181 576.164 100.681 572.664 102.681C569.164 104.681 585.664 132.681 580.664 136.181C576.664 138.981 571.664 150.014 569.664 155.181C571.664 146.681 563.164 116.681 560.164 118.181C557.164 119.681 561.664 149.181 561.664 158.181C561.664 165.381 548.997 175.514 542.664 179.681C544.664 173.181 541.664 155.181 541.664 149.181C541.664 143.181 549.164 128.181 545.164 128.181C539.944 128.181 541.831 132.181 541.164 135.681C533.664 145.181 541.664 185.681 537.664 184.681C533.664 183.681 520.164 202.681 523.164 197.681C526.165 192.681 525.164 175.681 524.164 168.181C523.164 160.681 528.664 153.681 527.164 151.181C525.665 148.681 523.164 147.681 519.164 158.181C515.164 168.681 514.664 192.181 510.164 191.181C506.565 190.381 498.332 184.847 494.665 182.181C496.667 178.681 489.164 166.681 488.664 159.181C488.164 151.681 517.164 139.681 512.164 136.181C508.164 133.381 491.164 147.681 483.164 155.181C477.664 108.181 521.164 118.181 521.664 113.681C522.164 109.181 518.164 112.181 510.164 112.181C503.764 112.181 489.498 120.514 483.164 124.681C489.664 80.1807 518.664 87.1807 523.164 88.6807C527.664 90.1807 548.164 100.181 527.164 88.6807C510.364 79.4807 498.498 86.1807 494.665 90.6807C488.665 38.1807 523.665 78.1807 530.165 69.6807C535.365 62.8807 511.665 60.514 499.165 60.1807C500.665 55.6807 513.665 45.6807 520.165 42.6807C526.665 39.6807 530.165 25.6807 533.165 26.1807C536.165 26.6807 549.165 23.1807 562.165 24.1807C575.165 25.1807 575.665 55.6807 570.665 60.1807Z" fill="#2C2926"/>
<path d="M572.493 265.291C575.842 269.504 574.155 273.513 572.893 274.991L571.825 275.319C566.896 274.492 564.198 260.35 556.388 261.574C548.577 262.798 550.612 280.885 548.053 290.088C546.006 297.451 544.866 321.156 544.553 332.088C545.466 323.622 560.367 304.323 563.487 306.874C566.608 309.426 545.701 334.309 550.053 338.588C553.534 342.011 556.639 353.72 557.756 359.147C557.19 350.433 570.539 322.254 573.249 324.23C575.959 326.205 566.639 354.554 565.149 363.429C563.957 370.53 574.772 382.62 580.328 387.778C579.432 381.036 585.37 363.781 586.363 357.864C587.356 351.947 582.442 335.912 586.387 336.574C591.535 337.438 589.012 341.071 589.09 344.633C594.914 355.243 580.321 393.861 584.431 393.536C588.542 393.212 598.711 414.185 596.579 408.757C594.448 403.33 598.249 386.73 600.476 379.499C602.704 372.268 598.439 364.454 600.331 362.237C602.224 360.019 604.856 359.447 607.063 370.464C609.27 381.482 605.873 404.74 610.476 404.499C614.159 404.306 623.194 400.211 627.251 398.188C625.856 394.405 635.242 383.813 636.976 376.499C638.711 369.185 612.097 352.55 617.608 349.926C622.016 347.827 636.414 364.744 643.062 373.464C656.266 328.023 611.711 330.685 611.963 326.164C612.214 321.644 615.663 325.264 623.552 326.588C629.864 327.648 642.555 338.228 648.111 343.385C649.066 298.423 619.308 300.526 614.621 301.261C609.935 301.995 588.063 308.464 610.677 300.599C628.768 294.306 639.361 302.878 642.396 307.95C657.003 257.168 615.865 290.823 610.862 281.364C606.859 273.797 630.624 275.386 643.007 277.126C642.272 272.44 631.107 260.426 625.193 256.392C619.279 252.357 618.145 237.971 615.104 237.968C612.062 237.964 599.821 232.361 586.835 231.195C573.848 230.029 568.307 260.026 572.493 265.291Z" fill="#2C2926"/>
<path fill-rule="evenodd" clip-rule="evenodd" d="M434.664 395.681C426.998 406.514 413.964 432.081 423.164 447.681C423.831 441.681 426.464 429.681 431.664 429.681C432.928 429.681 433.074 433.674 433.296 439.78C433.955 457.828 435.286 494.329 468.164 500.681C458.164 485.514 440.864 453.281 451.664 445.681C456.596 442.21 457.457 447.615 458.831 456.24C461.218 471.223 465.153 495.921 494.664 500.681C489.664 497.347 480.364 489.781 483.164 486.181C484.397 484.596 487.119 486.981 490.98 490.365C498.08 496.588 509.033 506.187 521.664 500.681C510.497 495.181 490.064 482.081 497.664 473.681C501.76 469.154 503.532 472.434 506.427 477.79C510.246 484.859 516.02 495.543 531.664 496.681C533.331 486.347 531.164 464.781 509.164 461.181C500.664 461.181 502.664 445.181 549.164 467.181C545.417 455.014 527.47 431.881 485.664 436.681C476.664 438.681 485.164 425.181 535.664 434.181C534.825 421.181 521.85 398.781 476.664 413.181C468.164 415.181 483.164 396.181 524.664 401.681C517.997 389.014 497.364 369.581 468.164 393.181C459.664 399.181 460.164 380.681 481.664 378.181C479.331 371.514 473.064 359.281 466.664 363.681C462.389 366.62 461.255 371.558 460.363 375.443C459.586 378.828 458.992 381.414 456.664 381.181C451.664 380.681 451.664 361.181 466.664 358.181C448.262 349.681 416.099 344.481 434.664 391.681V395.681ZM468.164 457.681C468.331 461.847 469.564 470.881 473.164 473.681C477.664 477.181 471.664 456.181 468.164 457.681Z" fill="#2C2926"/>
<path fill-rule="evenodd" clip-rule="evenodd" d="M605.253 130.349C618.524 130.496 646.875 134.943 654.11 151.546C648.86 148.565 637.597 143.657 634.546 147.868C633.805 148.891 636.953 151.353 641.767 155.115C655.995 166.238 684.772 188.733 670.625 219.083C664.211 202.086 648.259 169.165 635.768 173.451C630.064 175.409 633.936 179.278 640.114 185.451C650.846 196.174 668.538 213.851 655.077 240.542C655.311 234.537 654.64 222.567 650.082 222.722C648.075 222.79 648.41 226.394 648.885 231.506C649.758 240.907 651.105 255.408 639.235 262.406C641.333 250.137 642.714 225.904 631.452 227.13C625.384 227.79 627 231.15 629.639 236.637C633.122 243.877 638.386 254.821 630.129 268.157C620.783 263.444 604.59 249.035 614.583 229.108C619.57 222.225 605.44 214.457 595.972 265.02C588.319 254.846 580.115 226.741 608.531 195.703C615.432 189.589 599.512 188.551 577.17 234.725C567.136 226.418 556.609 202.769 594.782 174.627C601.389 168.917 577.202 169.916 557.306 206.749C550.961 193.919 547.33 165.808 583.574 156.009C593.42 152.646 578.145 142.197 563.506 158.14C559.477 152.339 553.247 140.087 560.565 137.486C565.454 135.748 570.118 137.728 573.787 139.285C576.984 140.641 579.426 141.678 580.604 139.656C583.132 135.314 567.342 123.872 556.111 134.259C560.025 114.37 574.685 85.2742 602.014 128.002L605.253 130.349ZM632.284 198.712C635.561 201.292 642.152 207.591 642.307 212.149C642.501 217.846 629.016 200.666 632.284 198.712Z" fill="#2C2926"/>
<path fill-rule="evenodd" clip-rule="evenodd" d="M528.586 225.717C515.448 223.837 486.751 223.904 477.067 239.208C482.71 237.064 494.59 233.932 496.962 238.559C497.539 239.684 494.052 241.636 488.72 244.62C472.961 253.44 441.087 271.278 450.435 303.432C459.369 287.614 480.159 257.513 491.849 263.656C497.188 266.462 492.771 269.694 485.723 274.852C473.48 283.812 453.297 298.581 462.526 327.014C463.211 321.043 465.701 309.316 470.182 310.165C472.155 310.539 471.274 314.049 470.025 319.029C467.727 328.186 464.182 342.312 474.844 351.04C474.644 338.594 476.978 314.434 487.921 317.365C493.818 318.944 491.708 322.017 488.262 327.037C483.715 333.661 476.841 343.673 482.966 358.113C492.922 354.882 511.124 343.114 504.291 321.895C500.413 314.331 515.563 308.811 517.201 360.227C526.318 351.341 538.715 324.817 515.37 289.805C509.485 282.709 525.376 284.114 540.407 333.157C551.592 326.48 565.605 304.714 532.176 271.075C526.518 264.424 550.269 269.103 564.309 308.541C572.539 296.83 580.418 269.603 546.095 254.386C536.878 249.56 553.568 241.564 565.602 259.556C570.47 254.438 578.497 243.28 571.661 239.592C567.095 237.129 562.184 238.373 558.32 239.352C554.953 240.205 552.381 240.856 551.526 238.678C549.69 234.001 567.042 225.104 576.555 237.083C575.723 216.83 565.677 185.837 532.146 223.892L528.586 225.717ZM491.437 289.153C487.805 291.202 480.329 296.421 479.48 300.902C478.419 306.503 494.368 291.583 491.437 289.153Z" fill="#2C2926"/>
<path fill-rule="evenodd" clip-rule="evenodd" d="M567.513 419.198C553.113 418.398 553.18 445.531 555.013 459.198C557.06 454.288 567.474 449.044 573.656 445.93C575.03 445.239 576.194 444.652 577.012 444.198C581.512 441.698 588.512 446.698 584.012 448.198C579.512 449.698 559.512 459.698 559.012 469.698C558.612 477.698 567.845 491.698 572.512 497.698C570.822 479.957 585.904 466.499 592.133 460.94C593.278 459.918 594.124 459.164 594.512 458.698C597.012 455.698 602.512 456.698 598.012 460.698C579.512 475.698 577.512 493.198 577.012 500.698C576.612 506.698 587.178 513.865 592.512 516.698C592.178 517.698 591.812 520.498 593.012 523.698C594.512 527.698 613.012 541.698 611.012 539.198C609.012 536.698 610.012 493.198 622.012 497.698C630.616 500.925 621.483 519.832 615.994 531.196C613.828 535.681 612.229 538.991 612.512 539.698C613.312 541.698 620.512 545.531 624.012 547.198C629.512 546.198 641.212 542.098 644.012 533.698C646.026 527.655 644.231 518.3 642.917 511.447C641.947 506.392 641.238 502.698 642.512 502.698H649.012C645.512 498.531 638.212 487.498 637.012 476.698C635.512 463.198 599.012 429.198 596.012 428.198C593.612 427.398 592.012 429.865 591.512 431.198C589.512 427.531 581.913 419.998 567.513 419.198ZM617.012 476.698C613.012 479.898 607.678 487.365 605.512 490.698C605.512 483.698 611.512 473.198 613.512 471.198C615.512 469.198 622.012 472.698 617.012 476.698ZM586.012 438.198C582.678 438.198 576.012 437.498 576.012 434.698C576.012 431.198 581.012 432.698 586.012 438.198Z" fill="#2C2926"/>
<path d="M542.498 560C531.698 590.4 537.998 637.667 542.498 657.5C543.353 661.5 548 659.5 552 648.5C556 637.5 543.37 590.837 548.5 571.5C555 547 589.805 456.224 592.5 440.5C595.5 423 591.107 400.037 586 344.5C582 301 581.5 281.5 569.5 240.5C559.9 207.7 561 111.667 566 72.4998C567.333 66.8332 568.6 57.3998 563 64.9998C556 74.4998 548.5 219 563 249C577.239 278.459 579.02 375.232 588 411C596.159 443.5 555.998 522 542.498 560Z" fill="#2C2926"/>
<path d="M551.499 499C560.299 523 565.832 604 567.499 641.5C567.499 644.5 570.299 648.7 581.5 641.5C595.501 632.5 567.499 595.5 567.499 551C567.499 506.5 538.5 413 540.5 384C542.5 355 540.5 225.5 528.499 226.5C516.498 227.5 534.499 333 528.499 363C522.499 393 540.499 469 551.499 499Z" fill="#2C2926"/>
<path d="M545.5 561C532.3 558.6 497.667 562 482 564C506.8 590 579.333 576.5 612.5 566.5C612.167 565.667 608.4 563.4 596 561C580.5 558 562 564 545.5 561Z" fill="#2C2926"/>
<path d="M526.58 516.367C524.161 468.367 477.43 422.318 454.367 405.293C451.343 402.997 444.915 414.714 457.392 422.152C535.654 499.508 506.92 516.367 518.263 548.599C527.336 574.384 534.142 626.45 536.41 649.26C538.931 652.235 544.35 653.524 545.862 634.879C547.753 611.574 529.605 576.367 526.58 516.367Z" fill="#2C2926"/>
<path d="M615.498 560.339C615.655 555.512 607.093 557.775 602.497 559.345C589.606 563.752 573.747 569.591 547.356 569.591C522.756 569.591 500.926 564.519 488.369 560.856C483.259 559.366 477.834 558.566 478.498 563.818C480.538 579.959 484.442 615.387 487.639 644.137C491.663 680.33 501.438 713.182 503.967 721.28C504.36 722.537 505.117 723.623 506.282 724.248C510.384 726.452 522.45 731.178 548.639 729.615C574.165 728.092 586 727.818 589.5 726.327C591.843 725.329 595.128 724.006 595.5 722.848C599.257 711.139 608.479 653.79 611.283 617.988C612.817 598.41 615.256 567.738 615.498 560.339Z" fill="#FBF5EE"/>
</g>
<defs>
<clipPath id="clip0_848_191">
<rect width="640" height="780" fill="white"/>
</clipPath>
</defs>
</svg>
