<svg width="74" height="74" viewBox="0 0 74 74" fill="none" xmlns="http://www.w3.org/2000/svg">
<path d="M10 18C10 13.5817 13.5817 10 18 10H66C70.4183 10 74 13.5817 74 18V66C74 70.4183 70.4183 74 66 74H18C13.5817 74 10 70.4183 10 66V18Z" fill="#2C2926"/>
<rect x="2" y="2" width="64" height="64" rx="8" fill="#FBF5EE"/>
<mask id="mask0_854_256" style="mask-type:alpha" maskUnits="userSpaceOnUse" x="2" y="2" width="64" height="64">
<rect x="2" y="2" width="64" height="64" rx="8" fill="white"/>
</mask>
<g mask="url(#mask0_854_256)">
<rect x="2" y="2" width="64" height="32" fill="#2C2926"/>
<path fill-rule="evenodd" clip-rule="evenodd" d="M18 2L2 34H18H34H50H66V2L50 34V2L34 34V2L18 34V2Z" fill="#719FB0"/>
</g>
<path fill-rule="evenodd" clip-rule="evenodd" d="M29.1089 51.6646C29.1093 51.6643 29.1096 51.6641 28.0002 50C26.8908 48.3359 26.8912 48.3356 26.8916 48.3354L26.8944 48.3335L26.8991 48.3304L26.9118 48.322L26.9504 48.2969C26.9819 48.2766 27.0248 48.2493 27.0784 48.2159C27.1855 48.1493 27.3359 48.0583 27.5236 47.951C27.8975 47.7373 28.427 47.455 29.063 47.1724C30.2999 46.6226 32.0971 46 34.0002 46C35.9033 46 37.7006 46.6226 38.9375 47.1724C39.5735 47.455 40.1029 47.7373 40.4769 47.951C40.6646 48.0583 40.815 48.1493 40.9221 48.2159C40.9757 48.2493 41.0186 48.2766 41.0501 48.2969L41.0887 48.322L41.1014 48.3304L41.1061 48.3335L41.1088 48.3354C41.1092 48.3356 41.1096 48.3359 40.0002 50C38.8908 51.6641 38.8912 51.6643 38.8915 51.6646L38.8944 51.6665L38.8816 51.6581C38.8676 51.6491 38.8431 51.6335 38.8089 51.6122C38.7402 51.5694 38.6328 51.5042 38.4923 51.424C38.21 51.2627 37.802 51.045 37.313 50.8276C36.2999 50.3774 35.0971 50 34.0002 50C32.9033 50 31.7006 50.3774 30.6875 50.8276C30.1985 51.045 29.7904 51.2627 29.5081 51.424C29.3677 51.5042 29.2603 51.5694 29.1916 51.6122C29.1573 51.6335 29.1328 51.6491 29.1189 51.6581L29.106 51.6665L29.1089 51.6646ZM29.106 51.6665C29.1053 51.667 29.1055 51.6669 29.106 51.6665Z" fill="#2C2926"/>
<path fill-rule="evenodd" clip-rule="evenodd" d="M8.44517 4.2029C8.93886 4.07094 9.45961 4 10 4H12C13.1046 4 14 3.10457 14 2C14 0.89543 13.1046 0 12 0H10C9.10774 0 8.23982 0.117356 7.41222 0.338579C6.34511 0.623821 5.71129 1.72011 5.99653 2.78722C6.28178 3.85432 7.37807 4.48815 8.44517 4.2029ZM20 0C18.8954 0 18 0.89543 18 2C18 3.10457 18.8954 4 20 4H24C25.1046 4 26 3.10457 26 2C26 0.89543 25.1046 0 24 0H20ZM32 0C30.8954 0 30 0.89543 30 2C30 3.10457 30.8954 4 32 4H36C37.1046 4 38 3.10457 38 2C38 0.89543 37.1046 0 36 0H32ZM44 0C42.8954 0 42 0.89543 42 2C42 3.10457 42.8954 4 44 4H48C49.1046 4 50 3.10457 50 2C50 0.89543 49.1046 0 48 0H44ZM56 0C54.8954 0 54 0.89543 54 2C54 3.10457 54.8954 4 56 4H58C58.5404 4 59.0611 4.07094 59.5548 4.2029C60.6219 4.48815 61.7182 3.85432 62.0035 2.78722C62.2887 1.72011 61.6549 0.623821 60.5878 0.338579C59.7602 0.117356 58.8923 0 58 0H56ZM4.2029 8.44517C4.48815 7.37807 3.85432 6.28177 2.78722 5.99653C1.72011 5.71129 0.623821 6.34511 0.338579 7.41222C0.117356 8.23982 0 9.10774 0 10V12C0 13.1046 0.89543 14 2 14C3.10457 14 4 13.1046 4 12V10C4 9.45961 4.07094 8.93886 4.2029 8.44517ZM67.6614 7.41222C67.3762 6.34511 66.2799 5.71129 65.2128 5.99653C64.1457 6.28178 63.5119 7.37807 63.7971 8.44517C63.9291 8.93886 64 9.45961 64 10V12C64 13.1046 64.8954 14 66 14C67.1046 14 68 13.1046 68 12V10C68 9.10774 67.8826 8.23982 67.6614 7.41222ZM4 20C4 18.8954 3.10457 18 2 18C0.89543 18 0 18.8954 0 20V24C0 25.1046 0.89543 26 2 26C3.10457 26 4 25.1046 4 24V20ZM68 20C68 18.8954 67.1046 18 66 18C64.8954 18 64 18.8954 64 20V24C64 25.1046 64.8954 26 66 26C67.1046 26 68 25.1046 68 24V20ZM4 32C4 30.8954 3.10457 30 2 30C0.89543 30 0 30.8954 0 32V36C0 37.1046 0.89543 38 2 38C3.10457 38 4 37.1046 4 36V32ZM68 32C68 30.8954 67.1046 30 66 30C64.8954 30 64 30.8954 64 32V36C64 37.1046 64.8954 38 66 38C67.1046 38 68 37.1046 68 36V32ZM4 44C4 42.8954 3.10457 42 2 42C0.89543 42 0 42.8954 0 44V48C0 49.1046 0.89543 50 2 50C3.10457 50 4 49.1046 4 48V44ZM68 44C68 42.8954 67.1046 42 66 42C64.8954 42 64 42.8954 64 44V48C64 49.1046 64.8954 50 66 50C67.1046 50 68 49.1046 68 48V44ZM4 56C4 54.8954 3.10457 54 2 54C0.89543 54 0 54.8954 0 56V58C0 58.8923 0.117356 59.7602 0.338579 60.5878C0.623821 61.6549 1.72011 62.2887 2.78722 62.0035C3.85432 61.7182 4.48815 60.6219 4.2029 59.5548C4.07094 59.0611 4 58.5404 4 58V56ZM68 56C68 54.8954 67.1046 54 66 54C64.8954 54 64 54.8954 64 56V58C64 58.5404 63.9291 59.0611 63.7971 59.5548C63.5119 60.6219 64.1457 61.7182 65.2128 62.0035C66.2799 62.2887 67.3762 61.6549 67.6614 60.5878C67.8826 59.7602 68 58.8923 68 58V56ZM8.44517 63.7971C7.37807 63.5119 6.28177 64.1457 5.99653 65.2128C5.71129 66.2799 6.34511 67.3762 7.41222 67.6614C8.23982 67.8826 9.10774 68 10 68H12C13.1046 68 14 67.1046 14 66C14 64.8954 13.1046 64 12 64H10C9.45961 64 8.93886 63.9291 8.44517 63.7971ZM60.5878 67.6614C61.6549 67.3762 62.2887 66.2799 62.0035 65.2128C61.7182 64.1457 60.6219 63.5119 59.5548 63.7971C59.0611 63.9291 58.5404 64 58 64H56C54.8954 64 54 64.8954 54 66C54 67.1046 54.8954 68 56 68H58C58.8923 68 59.7602 67.8826 60.5878 67.6614ZM20 64C18.8954 64 18 64.8954 18 66C18 67.1046 18.8954 68 20 68H24C25.1046 68 26 67.1046 26 66C26 64.8954 25.1046 64 24 64H20ZM32 64C30.8954 64 30 64.8954 30 66C30 67.1046 30.8954 68 32 68H36C37.1046 68 38 67.1046 38 66C38 64.8954 37.1046 64 36 64H32ZM44 64C42.8954 64 42 64.8954 42 66C42 67.1046 42.8954 68 44 68H48C49.1046 68 50 67.1046 50 66C50 64.8954 49.1046 64 48 64H44ZM26 50C26 54.4183 22.4183 58 18 58C13.5817 58 10 54.4183 10 50C10 45.5817 13.5817 42 18 42C22.4183 42 26 45.5817 26 50ZM30 50C30 56.6274 24.6274 62 18 62C11.3726 62 6 56.6274 6 50C6 43.3726 11.3726 38 18 38C24.6274 38 30 43.3726 30 50ZM18 54C20.2091 54 22 52.2091 22 50C22 47.7909 20.2091 46 18 46C15.7909 46 14 47.7909 14 50C14 52.2091 15.7909 54 18 54ZM58 50C58 54.4183 54.4183 58 50 58C45.5817 58 42 54.4183 42 50C42 45.5817 45.5817 42 50 42C54.4183 42 58 45.5817 58 50ZM62 50C62 56.6274 56.6274 62 50 62C43.3726 62 38 56.6274 38 50C38 43.3726 43.3726 38 50 38C56.6274 38 62 43.3726 62 50ZM50 54C52.2091 54 54 52.2091 54 50C54 47.7909 52.2091 46 50 46C47.7909 46 46 47.7909 46 50C46 52.2091 47.7909 54 50 54Z" fill="#2C2926"/>
</svg>
