<svg width="74" height="74" viewBox="0 0 74 74" fill="none" xmlns="http://www.w3.org/2000/svg">
<path d="M10 18C10 13.5817 13.5817 10 18 10H66C70.4183 10 74 13.5817 74 18V66C74 70.4183 70.4183 74 66 74H18C13.5817 74 10 70.4183 10 66V18Z" fill="#2C2926"/>
<rect x="2" y="2" width="64" height="64" rx="8" fill="#FBF5EE"/>
<mask id="mask0_854_352" style="mask-type:alpha" maskUnits="userSpaceOnUse" x="2" y="2" width="64" height="64">
<rect x="2" y="2" width="64" height="64" rx="8" fill="white"/>
</mask>
<g mask="url(#mask0_854_352)">
<rect x="2" y="2" width="64" height="32" fill="#2C2926"/>
<path fill-rule="evenodd" clip-rule="evenodd" d="M18 2L2 34H18H34H50H66V2L50 34V2L34 34V2L18 34V2Z" fill="#F1AA5D"/>
</g>
<path fill-rule="evenodd" clip-rule="evenodd" d="M8.44517 4.2029C8.93886 4.07094 9.45961 4 10 4H12C13.1046 4 14 3.10457 14 2C14 0.89543 13.1046 0 12 0H10C9.10774 0 8.23982 0.117356 7.41222 0.338579C6.34511 0.623821 5.71129 1.72011 5.99653 2.78722C6.28178 3.85432 7.37807 4.48815 8.44517 4.2029ZM20 0C18.8954 0 18 0.89543 18 2C18 3.10457 18.8954 4 20 4H24C25.1046 4 26 3.10457 26 2C26 0.89543 25.1046 0 24 0H20ZM32 0C30.8954 0 30 0.89543 30 2C30 3.10457 30.8954 4 32 4H36C37.1046 4 38 3.10457 38 2C38 0.89543 37.1046 0 36 0H32ZM44 0C42.8954 0 42 0.89543 42 2C42 3.10457 42.8954 4 44 4H48C49.1046 4 50 3.10457 50 2C50 0.89543 49.1046 0 48 0H44ZM56 0C54.8954 0 54 0.89543 54 2C54 3.10457 54.8954 4 56 4H58C58.5404 4 59.0611 4.07094 59.5548 4.2029C60.6219 4.48815 61.7182 3.85432 62.0035 2.78722C62.2887 1.72011 61.6549 0.623821 60.5878 0.338579C59.7602 0.117356 58.8923 0 58 0H56ZM4.2029 8.44517C4.48815 7.37807 3.85432 6.28177 2.78722 5.99653C1.72011 5.71129 0.623821 6.34511 0.338579 7.41222C0.117356 8.23982 0 9.10774 0 10V12C0 13.1046 0.89543 14 2 14C3.10457 14 4 13.1046 4 12V10C4 9.45961 4.07094 8.93886 4.2029 8.44517ZM67.6614 7.41222C67.3762 6.34511 66.2799 5.71129 65.2128 5.99653C64.1457 6.28178 63.5119 7.37807 63.7971 8.44517C63.9291 8.93886 64 9.45961 64 10V12C64 13.1046 64.8954 14 66 14C67.1046 14 68 13.1046 68 12V10C68 9.10774 67.8826 8.23982 67.6614 7.41222ZM4 20C4 18.8954 3.10457 18 2 18C0.89543 18 0 18.8954 0 20V24C0 25.1046 0.89543 26 2 26C3.10457 26 4 25.1046 4 24V20ZM68 20C68 18.8954 67.1046 18 66 18C64.8954 18 64 18.8954 64 20V24C64 25.1046 64.8954 26 66 26C67.1046 26 68 25.1046 68 24V20ZM4 32C4 30.8954 3.10457 30 2 30C0.89543 30 0 30.8954 0 32V36C0 37.1046 0.89543 38 2 38C3.10457 38 4 37.1046 4 36V32ZM68 32C68 30.8954 67.1046 30 66 30C64.8954 30 64 30.8954 64 32V36C64 37.1046 64.8954 38 66 38C67.1046 38 68 37.1046 68 36V32ZM4 44C4 42.8954 3.10457 42 2 42C0.89543 42 0 42.8954 0 44V48C0 49.1046 0.89543 50 2 50C3.10457 50 4 49.1046 4 48V44ZM68 44C68 42.8954 67.1046 42 66 42C64.8954 42 64 42.8954 64 44V48C64 49.1046 64.8954 50 66 50C67.1046 50 68 49.1046 68 48V44ZM4 56C4 54.8954 3.10457 54 2 54C0.89543 54 0 54.8954 0 56V58C0 58.8923 0.117356 59.7602 0.338579 60.5878C0.623821 61.6549 1.72011 62.2887 2.78722 62.0035C3.85432 61.7182 4.48815 60.6219 4.2029 59.5548C4.07094 59.0611 4 58.5404 4 58V56ZM68 56C68 54.8954 67.1046 54 66 54C64.8954 54 64 54.8954 64 56V58C64 58.5404 63.9291 59.0611 63.7971 59.5548C63.5119 60.6219 64.1457 61.7182 65.2128 62.0035C66.2799 62.2887 67.3762 61.6549 67.6614 60.5878C67.8826 59.7602 68 58.8923 68 58V56ZM8.44517 63.7971C7.37807 63.5119 6.28177 64.1457 5.99653 65.2128C5.71129 66.2799 6.34511 67.3762 7.41222 67.6614C8.23982 67.8826 9.10774 68 10 68H12C13.1046 68 14 67.1046 14 66C14 64.8954 13.1046 64 12 64H10C9.45961 64 8.93886 63.9291 8.44517 63.7971ZM60.5878 67.6614C61.6549 67.3762 62.2887 66.2799 62.0035 65.2128C61.7182 64.1457 60.6219 63.5119 59.5548 63.7971C59.0611 63.9291 58.5404 64 58 64H56C54.8954 64 54 64.8954 54 66C54 67.1046 54.8954 68 56 68H58C58.8923 68 59.7602 67.8826 60.5878 67.6614ZM20 64C18.8954 64 18 64.8954 18 66C18 67.1046 18.8954 68 20 68H24C25.1046 68 26 67.1046 26 66C26 64.8954 25.1046 64 24 64H20ZM32 64C30.8954 64 30 64.8954 30 66C30 67.1046 30.8954 68 32 68H36C37.1046 68 38 67.1046 38 66C38 64.8954 37.1046 64 36 64H32ZM44 64C42.8954 64 42 64.8954 42 66C42 67.1046 42.8954 68 44 68H48C49.1046 68 50 67.1046 50 66C50 64.8954 49.1046 64 48 64H44ZM22 50C22 52.2091 20.2091 54 18 54C15.7909 54 14 52.2091 14 50C14 47.7909 15.7909 46 18 46C20.2091 46 22 47.7909 22 50ZM45 50C45 48.8954 45.8954 48 47 48H53C54.1046 48 55 48.8954 55 50C55 51.1046 54.1046 52 53 52H47C45.8954 52 45 51.1046 45 50Z" fill="#2C2926"/>
</svg>
