<svg width="34" height="34" viewBox="0 0 34 34" fill="none" xmlns="http://www.w3.org/2000/svg">
<path d="M33 7.07804C31.8227 7.60059 30.5573 7.95252 29.2293 8.11116C30.5853 7.29932 31.6267 6.01292 32.116 4.4799C30.848 5.23175 29.4427 5.7783 27.9467 6.07291C26.7507 4.79717 25.0427 4 23.1547 4C18.916 4 15.8013 7.95386 16.7587 12.0583C11.304 11.7851 6.46667 9.17227 3.228 5.20109C1.508 8.15115 2.336 12.0104 5.25867 13.9646C4.184 13.93 3.17067 13.6354 2.28667 13.1435C2.21467 16.1842 4.39467 19.0289 7.552 19.6621C6.628 19.9127 5.616 19.9714 4.58667 19.7741C5.42133 22.3816 7.84533 24.2785 10.72 24.3318C7.96 26.4954 4.48267 27.4619 1 27.0513C3.90533 28.9136 7.35733 30 11.064 30C23.2533 30 30.14 19.7074 29.724 10.476C31.0067 9.54953 32.12 8.39377 33 7.07804V7.07804Z" fill="#F1AA5D"/>
</svg>
