<svg xmlns="http://www.w3.org/2000/svg" fill="none" viewBox="0 0 1024 1024"><g clip-path="url(#a)"><path fill="#3B3F1E" d="M0 0h1024v1024H0z"/><path fill="#71703D" d="M658 221.5C658 115.5 743.5 47 832 47v208H658v-33.5Zm387 0C1045 111 957.5 47 872 47v208h173v-33.5ZM658 615V295h174v320H658Zm214 0V295h173v320H872ZM658 833V655h174v178H658Zm214 0V655h173v178H872Z"/><path fill="#F1AA5D" d="m1099.5 1047.5-775.5-13s123.5-56.462 201.5-71.481c59.888-11.532 110.934-34.842 131.41-45.046 6.17-3.075 13.39-3.981 20.247-3.265 17.234 1.8 60.055 3.695 160.343-1.708 148.5-8 304.5 0 304.5 0l-42.5 134.5Z"/><mask id="b" width="818" height="139" x="324" y="909" maskUnits="userSpaceOnUse" style="mask-type:alpha"><path fill="#000" d="m1099.5 1047.5-775.5-13s123.5-56.462 201.5-71.481c59.888-11.532 110.934-34.842 131.41-45.046 6.17-3.074 13.39-3.981 20.247-3.265 17.234 1.8 60.055 3.695 160.343-1.708 148.5-8 304.5 0 304.5 0l-42.5 134.5Z"/></mask><g fill="#71703D" mask="url(#b)"><path d="m679 920.5 41-9h18l-41.5 21-3.5 22-50 10.5-24.5 31.5-65.5 4-35.5 29L455 1040l-46.5-4.5 21.5-17 50.5-8 41-29.5 69.5-8 24.5-20.5 53-12 10.5-20Z"/><path d="m720 937.5 43.5-26h20l-39 35L738 977l-52 24.5-7 28-99 6v-11l68.5-14.5 20-29 51.5-14.5v-29Zm59 3 30-29h15.5l-26.5 35 6.5 34.5-41 33 15.5 21.5h-62.5l13-28.5 43-30 6.5-36.5Zm50.5 0 23.5-33h25.5l-23 37L868 977l-15 30 15 22.5h-47l-9-22.5 24.5-34-7-32.5ZM890 926l30-18.5h20.5l-24.5 30 16 35.5-19.5 45.5 19.5 17-47.5 4.64v-21.64l16-41.5-10.5-51Zm60.5 6.5 15.5-25h30.5l-21 25L988 961l-4.5 49 9.5 19.5-31 10.64-11.5-33.14 11.5-37-11.5-37.5Zm53 12 21.5-37h12.5V926l-14.5 26 21.5 72.5-25.5 11-10.5-28.5 7-20.5-12-42Z"/></g><path fill="#F1AA5D" d="m630 916 6.5 7 2.5-1.5-5-8.5-4 3Zm-4.5 3.5 3.5 8h-3.5L619 923l6.5-3.5ZM613 925l3 8-4 2.5-5.5-7.5 6.5-3Zm-10.5 3 2.5 10-3.5 1-6-7 7-4Zm-12 3 4 11.5h-4l-6-8 6-3.5Zm-21 8 1.5 8-3 2.5-5-6.5 6.5-4Zm-12.5 2.5 1.5 10-4 1-5-8.5 7.5-2.5Zm-12.5 3.5.5 10-3.5-1.5-4.5-9.5 7.5 1Zm-10 2 1 9.5-4 2-3-9 6-2.5Zm-13.5 0 2 13-3.5 1.5-6-12 7.5-2.5Zm-13 6.5v9.5h-3.5l-4-6.5 7.5-3Zm-11.5 1.5 1.5 11-3.5 1-4-9.5 6-2.5Zm-10.5 0 2 13.5h-3.5l-5-11 6.5-2.5Zm-16.5 5 10 10-5 1-10.5-7 5.5-4Zm-7 7 2.5 7.5-2.5 1.5-4.5-6 4.5-3Zm-9.5 1.5 3.5 10.5-3.5 1-6-7 6-4.5Zm-9.5 6 2 8-3.5 1-3.5-6 5-3Zm-11 3 5 7.5-3.5 1-7-4.5 5.5-4Zm-10 1.5 4.5 10h-2.5l-6.5-6.5 4.5-3.5Zm-6 7 1.5 6.5-1.5 1-4-4.5 4-3Zm-10.5 1.5 2.5 8-2.5 1-3.5-6 3.5-3Zm-7.5 2.5 2.5 9.5-2.5 1-4.5-8 4.5-2.5Zm-8 4.5 1.5 7-1.5 2.5-5-7.5 5-2Zm-7 6 1 6-2 1.5-4-5.5 5-2Zm-13 0 6 7-2.5 1.5-9.5-4.5 6-4Zm-4.5 7 2 4.5-2 1.5-4-3 4-3Zm-11 3 5.5 4.5-2 1.5-6-3 2.5-3Zm-6.5 4 4.5 5-2.5 1-6-3 4-3Zm-9 5 5.5 5-2.5 1.5-6-2.5 3-4ZM640 913l4.5 6.5h2.5l-2.5-9.5-4.5 3Zm4.5-7 7.5 10 1.5-2.5-4-8.5-5 1Zm10 3.5 3 4 3.5 1-2-6.5-4.5 1.5Zm-72 35.5-4 1-6-12 6.5-2 3.5 13Z"/><path fill="#1A1F1A" d="M-66.592 72.186c.232-8.875 7.631-15.801 16.504-15.497 37.992 1.301 132.87 3.957 167.154-.59 28.82-3.824 176.326 3.653 272.408-1.282 28.291-1.453 52.598-.688 67.44.148 8.626.486 15.009 7.96 14.675 16.592-.837 21.637-1.748 65.235.769 126.014 2.998 72.426 1.131 184.371.32 224.034-.169 8.25-6.581 14.951-14.825 15.283-21.299.86-63.053 1.678-104.806-2.413-54.089-.409-112.269-.271-140.955 1.669-50.663 3.425-205.388 1.232-259.384.332-9.896-.165-17.848-9.297-17.471-19.187.718-18.83 1.02-54.85-1.36-121.052-3.305-91.918-1.437-187.031-.469-224.05Z"/><path fill="#71703D" d="M456.486 412.062a7.926 7.926 0 0 1-8.229 7.718c-29.109-1.034-129.711-4.186-164.397.297-27.118 3.504-165.915-3.35-256.324 1.174-31.527 1.578-57.795.304-70.24-.554-4.323-.298-7.521-4.032-7.31-8.361.81-16.614 2.22-59.333-.44-121.943-3.002-70.624-.822-182.24-.17-211.485.093-4.127 3.307-7.41 7.431-7.61 16.937-.82 60.97-2.27 105.005 1.934 50.896.374 105.64.248 132.633-1.53 50.608-3.334 211.569-.862 252.335-.168 4.965.085 8.872 4.65 8.563 9.607-.88 14.138-1.751 47.226.891 118.809 3.344 90.598 1.06 184.585.252 212.112Z"/><mask id="c" width="510" height="352" x="-52" y="70" maskUnits="userSpaceOnUse" style="mask-type:alpha"><path fill="#C5565F" d="M456.486 412.062a7.926 7.926 0 0 1-8.229 7.718c-29.109-1.034-129.711-4.186-164.397.297-27.118 3.504-165.915-3.35-256.324 1.174-31.527 1.578-57.795.304-70.24-.554-4.323-.298-7.521-4.032-7.31-8.361.81-16.614 2.22-59.333-.44-121.943-3.002-70.624-.822-182.24-.17-211.485.093-4.127 3.307-7.41 7.431-7.61 16.937-.82 60.97-2.27 105.005 1.934 50.896.374 105.64.248 132.633-1.53 50.608-3.334 211.569-.862 252.335-.168 4.965.085 8.872 4.65 8.563 9.607-.88 14.138-1.751 47.226.891 118.809 3.344 90.598 1.06 184.585.252 212.112Z"/></mask><g fill="#F1AA5D" fill-rule="evenodd" clip-rule="evenodd" mask="url(#c)"><path d="M512.667 225.678c-3.795-10.157-11.465-24.259-23.133-41.597-23.433-34.818-60.669-79.289-106.22-124.84l28.284-28.284c46.803 46.802 85.86 93.258 111.12 130.791 12.537 18.627 22.269 35.925 27.626 50.487 2.657 7.221 4.662 14.888 4.833 22.325.171 7.453-1.52 17.063-9.042 24.585-7.522 7.522-17.132 9.213-24.585 9.042-7.438-.17-15.104-2.176-22.326-4.833-14.561-5.357-31.86-15.089-50.487-27.625-37.533-25.26-83.989-64.318-130.791-111.12l28.284-28.284c45.551 45.551 90.023 82.787 124.841 106.219 17.338 11.669 31.44 19.339 41.596 23.134Z"/><path d="M199.157 22.883c33.008 22.575 75.314 58.249 118.791 101.726l28.284-28.284c-44.677-44.678-88.888-82.107-124.494-106.46-17.666-12.08-34.058-21.532-47.832-26.838-6.816-2.626-14.123-4.688-21.252-4.996-7.08-.305-16.73 1.08-24.286 8.635-7.555 7.555-8.939 17.205-8.634 24.285.308 7.13 2.369 14.436 4.996 21.253 5.306 13.773 14.757 30.166 26.839 47.831 24.352 35.607 61.781 79.817 106.459 124.495l28.284-28.284c-43.478-43.478-79.152-85.784-101.727-118.792-9.75-14.256-16.628-26.16-20.713-35.285 9.124 4.085 21.029 10.964 35.285 20.713ZM150.727-2.01Zm8.966-8.945v-.021.02Z"/><path d="M387.379 350.967c-3.795-10.157-11.465-24.259-23.134-41.597-23.432-34.818-60.668-79.289-106.219-124.84l28.284-28.284c46.802 46.802 85.86 93.257 111.12 130.791 12.536 18.627 22.268 35.925 27.625 50.487 2.657 7.221 4.663 14.888 4.834 22.325.17 7.453-1.521 17.063-9.043 24.585-7.522 7.522-17.132 9.213-24.585 9.042-7.437-.17-15.104-2.176-22.325-4.833-14.562-5.357-31.86-15.089-50.487-27.625-37.533-25.26-83.989-64.318-130.791-111.12l28.284-28.284c45.551 45.551 90.022 82.786 124.84 106.219 17.338 11.669 31.44 19.339 41.597 23.134ZM73.341 149.152c33.373 22.028 75.896 57.324 119.317 100.746l28.284-28.285c-44.734-44.734-89.337-81.931-125.565-105.844-17.974-11.864-34.78-21.06-49.048-26.019-7.087-2.463-14.646-4.276-22.009-4.274-7.438.002-16.69 1.926-23.966 9.202s-9.2 16.528-9.201 23.965c-.003 7.363 1.81 14.922 4.274 22.009C.387 154.92 9.58 171.727 21.445 189.7c23.913 36.228 61.11 80.831 105.845 125.565l28.284-28.284c-43.421-43.421-78.717-85.944-100.746-119.316-11.098-16.815-18.234-30.419-21.611-40.125 9.706 3.378 23.31 10.513 40.124 21.612Z"/><path d="M256.64 481.703c-3.796-10.157-11.465-24.259-23.134-41.597-23.433-34.818-60.669-79.289-106.22-124.84l28.285-28.285c46.802 46.803 85.86 93.258 111.12 130.791 12.536 18.628 22.268 35.926 27.625 50.487 2.657 7.222 4.663 14.888 4.833 22.326.171 7.453-1.52 17.063-9.042 24.585-7.522 7.522-17.132 9.213-24.585 9.042-7.437-.17-15.104-2.176-22.325-4.833-14.562-5.357-31.86-15.089-50.488-27.625-37.533-25.26-83.988-64.318-130.79-111.12l28.284-28.285c45.551 45.551 90.022 82.787 124.84 106.22 17.338 11.669 31.44 19.338 41.597 23.134Z"/><path d="M-56.864 278.907c33.008 22.575 75.314 58.249 118.792 101.727l28.284-28.285C45.534 307.671 1.324 270.243-34.283 245.89c-17.665-12.081-34.058-21.532-47.83-26.839-6.817-2.626-14.124-4.688-21.253-4.995-7.08-.306-16.73 1.079-24.286 8.634-7.555 7.556-8.94 17.206-8.634 24.286.308 7.129 2.369 14.435 4.995 21.252 5.307 13.773 14.758 30.166 26.839 47.831 24.353 35.607 61.782 79.817 106.46 124.495l28.284-28.284c-43.478-43.478-79.152-85.784-101.727-118.792-9.75-14.255-16.628-26.16-20.713-35.284 9.124 4.085 21.029 10.963 35.284 20.713Zm-48.43-24.892.021-.001-.021.001Zm8.966-8.946Z"/><path d="M131.359 606.991c-3.795-10.156-11.465-24.259-23.134-41.597-23.433-34.818-60.668-79.289-106.22-124.84L30.29 412.27c46.802 46.802 85.86 93.258 111.12 130.791 12.536 18.627 22.268 35.925 27.625 50.487 2.657 7.221 4.663 14.888 4.833 22.325.171 7.453-1.52 17.063-9.042 24.585-7.522 7.522-17.132 9.214-24.585 9.043-7.437-.171-15.104-2.177-22.325-4.834-14.562-5.357-31.86-15.089-50.487-27.625-37.534-25.26-83.99-64.318-130.791-111.12l28.284-28.284c45.55 45.551 90.022 82.787 124.84 106.219 17.338 11.669 31.44 19.339 41.597 23.134Z"/></g><path fill="#1A1F1A" d="M358.254 973.85c.968-40.717-154.468-48.661-232.307-47.543-66.677 1.276-199.755 13.147-198.646 50.418 1.386 46.585 429.742 48.025 430.953-2.875Z"/><path fill="#F6E6D5" d="M287.267 971.107c.366-3.471-10.833-62.184-16.478-91.107l-21.514 4.338c9.155 29.727 27.83 89.372 29.295 90.143 1.831.964 8.239.964 8.697-3.374Zm-63.269-15.731c.911-2.266 3.871-44.042 5.237-64.647l-16.208-1.35c.995 21.843 3.211 65.732 4.115 66.542 1.13 1.014 5.717 2.286 6.856-.545Z"/><path fill="#1A1F1A" d="M-85 877.944C-85 859.004 57.142 865 130 865c64.131 0 188 .5 188 16 0 31.48-403 36.294-403-3.056Z"/><path fill="#F6E6D5" d="M-84.725 873.873c0-14.104 142.497-11.721 215.355-11.721h.002c64.132 0 187.643 0 187.643 18.233 0 23.442-403 22.791-403-6.512Z"/><path fill="#1A1F1A" d="M165.009 879.388c.737-7.635 24.864-7.555 36.836-6.561 10.898-1.392 32.784-2.028 33.153 6.561.46 10.737-70.91 9.544-69.989 0Z"/><path fill="#F1AA5D" d="M166.5 823c14.833-3 48.7-7 65.5 1-17.167 8-54.3 19-65.5-1Z"/><path fill="#F6E6D5" d="M179 874.5c-2.4-6-9.333-36.833-12.5-51.5 29 20.5 60.5 0 67 1 0 9.025-5.892 38.051-9.368 52.413-.38 1.569-1.67 2.754-3.275 2.935-13.924 1.567-39.608.773-41.857-4.848Z"/><path fill="#F6E6D5" d="M193 821.25c0 2.143 1.828 3.75 4.875 3.75 4.874 0 6.092-8.571 0-15 0 5.357-4.875 7.5-4.875 11.25Z"/><path fill="#1A1F1A" d="M40.01 876.507c-.153 9.251 37.28 10.936 56.017 10.622 16.049-.341 48.061-3.141 47.721-11.607-.426-10.583-103.547-10.579-103.738.985Zm-58.513-187.379c1.5 5.5 31.5 21 54.5 25.5C52.337 717.825 71.15 742.918 82 760.5c1.368 2.216-3.5-1-33 2 3.667 2.667 35.002 7.372 48.5 6.5.992-.064 42-4 42-6.5-14-2.5-40.29-1.16-40-2 .697-2.014.998-1.951.998-3.372 32.5-55.5 43-47.5 68-64.5 24.5-20.767 39.167-16.167 48.5-13-8-5.5-12-7.483-18.5-6.5-59.5 9-81.5 34.5-93 44.5-9.901 8.61-4.333 18.667 0 23-2 3.5-6.3 10-7.5 8-1.5-2.5-3-32.5 0-34 41.2-20.4 50.167-49.833 49.5-62 18.5-7 51-43 66-74s10-39.5 9.5-42.5c-.4-2.4 1.5-5.333 2.5-6.5-2 1-7 2.8-11 2-16.8-4.8-64 42.333-85.5 66.5-2.8-5.2-9.167-9.167-12-10.5 5-10 30-27 48-57.5 30.4-54.4 25.333-77.667 19-82.5-14.8 0-42.833 29-55 43.5-6.5-49-43.5-61-50.5-61-5.6 0-15.333 5-19.5 7.5-2.5-3.167-10.4-11.7-22-20.5-14.5-11-68.5-42-70.5 5.5-1.6 38 39.333 82.167 60 99.5 4.4 19.2 28.833 44.333 40.5 54.5 4.8 5.6 6 23.333 6 31.5-4.4 4.8-7.5 13.333-8.5 17-77.6-91.2-124.667-96.167-137.5-86 25.2 53.2 98.5 92.667 131 104.5 2.167 4.5 3.7 11.3-7.5 2.5s-30-7.667-38-6c-8.667-5.333-25.063-6-24.5 0 1.5 16 44 44 60 45.5s32.5 19 37 27S90.498 760 86.997 760s-7.999-12.372-11.499-24.872c-3.5-12.5-31.5-29-46.5-36s-24.501-15-30.501-15-18.5-.5-17 5Z"/><path fill="#F1AA5D" d="M46.367 768.947c-.435-4.545-1.386-7.925 3.666-6.69 8.077 1.973 25.567 6.116 43.741 6.116 17.369 0 37.487-4.193 45.562-6.116 3.164-.754 2.108 3.736 1.971 7.64-.405 11.526-1.491 33.381-4.296 55.436-2.408 18.933-4.757 38.209-5.593 47.404-.519 5.703-4.88 6.073-11.453 6.387-8.646.413-21.092.876-33.42.876-10.502 0-21.223-1.192-25.954-1.911-4.68-.712-4.21-3.662-4.615-7.775-1.565-15.89-5.552-56.608-7.696-80.533a3546.064 3546.064 0 0 0-1.913-20.834Z"/><path fill="#1A1F1A" d="M824.001 959.916c.34-18.459 89.435-30.843 117.117-28.669 23.708 2.007 101.652 3.079 98.802 19.64-6.38 37.12-216.345 32.104-215.919 9.029Zm128.664-739.735c-4 3.6-3 7.833-2 9.5l.999.5c4.999 0 10-13.5 17.5-11s2.5 20 3.5 29.5c.8 7.6-2 31.166-3.5 42 .5-8.5-11-30-14.5-28s13 30 8 33.5c-4 2.8-9 13.833-11 19 2-8.5-6.5-38.5-9.5-37s1.5 31 1.5 40c0 7.2-12.667 17.333-19 21.5 2-6.5-1-24.5-1-30.5s7.5-21 3.5-21c-5.22 0-3.333 4-4 7.5-7.5 9.5.5 50-3.5 49s-17.5 18-14.5 13c3.001-5 2-22 1-29.5s4.5-14.5 3-17c-1.499-2.5-4-3.5-8 7s-4.5 34-9 33c-3.599-.8-11.832-6.334-15.499-9 2.002-3.5-5.501-15.5-6.001-23s28.5-19.5 23.5-23c-4-2.8-21 11.5-29 19-5.5-47 38-37 38.5-41.5s-3.5-1.5-11.5-1.5c-6.4 0-20.666 8.333-27 12.5 6.5-44.5 35.5-37.5 40-36s25 11.5 4 0c-16.8-9.2-28.666-2.5-32.499 2-6-52.5 29-12.5 35.5-21 5.2-6.8-18.5-9.167-31-9.5 1.5-4.5 14.5-14.5 21-17.5s10-17 13-16.5 16-3 29-2 13.5 31.5 8.5 36Zm1.828 205.11c3.349 4.213 1.662 8.222.4 9.7l-1.068.328c-4.929-.827-7.627-14.969-15.437-13.745-7.811 1.224-5.776 19.31-8.335 28.514-2.047 7.363-3.187 31.068-3.5 42 .913-8.466 15.814-27.766 18.934-25.214 3.121 2.552-17.786 27.435-13.434 31.714 3.481 3.423 6.586 15.132 7.703 20.559-.566-8.714 12.783-36.893 15.493-34.918 2.711 1.976-6.61 30.324-8.1 39.2-1.192 7.101 9.623 19.191 15.179 24.349-.896-6.742 5.042-23.997 6.035-29.914.993-5.917-3.921-21.952.024-21.29 5.148.864 2.625 4.497 2.703 8.059 5.824 10.61-8.769 49.227-4.659 48.903 4.111-.324 14.28 20.649 12.148 15.221-2.131-5.428 1.67-22.027 3.897-29.258 2.228-7.231-2.037-15.045-.145-17.263 1.893-2.217 4.525-2.789 6.732 8.228s-1.19 34.276 3.413 34.035c3.683-.194 12.714-4.288 16.774-6.311-1.39-3.783 7.99-14.375 9.73-21.689 1.73-7.314-24.883-23.949-19.372-26.573 4.412-2.099 18.802 14.818 25.452 23.538 13.21-45.441-31.349-42.779-31.097-47.3.251-4.521 3.7-.9 11.587.424 6.31 1.06 19 11.64 24.56 16.797.96-44.962-28.8-42.859-33.489-42.124-4.686.734-26.558 7.203-3.944-.662 18.093-6.293 28.683 2.279 31.723 7.351 14.6-50.782-26.535-17.127-31.538-26.586-4.003-7.567 19.758-5.978 32.148-4.238-.74-4.686-11.9-16.7-17.82-20.734-5.91-4.035-7.05-18.421-10.086-18.425-3.042-.003-15.283-5.607-28.269-6.772-12.987-1.166-18.528 28.831-14.342 34.096Z"/><path fill="#1A1F1A" fill-rule="evenodd" d="M816.664 555.681c-7.666 10.833-20.7 36.4-11.5 52 .667-6 3.3-18 8.5-18 1.264 0 1.41 3.993 1.632 10.099.659 18.048 1.99 54.549 34.868 60.901-10-15.167-27.3-47.4-16.5-55 4.932-3.471 5.793 1.934 7.167 10.559 2.387 14.983 6.322 39.681 35.833 44.441-5-3.334-14.3-10.9-11.5-14.5 1.233-1.585 3.955.8 7.816 4.184 7.1 6.223 18.053 15.822 30.684 10.316-11.167-5.5-31.6-18.6-24-27 4.096-4.527 5.868-1.247 8.763 4.109 3.819 7.069 9.593 17.753 25.237 18.891 1.667-10.334-.5-31.9-22.5-35.5-8.5 0-6.5-16 40 6-3.747-12.167-21.694-35.3-63.5-30.5-9 2-.5-11.5 50-2.5-.839-13-13.814-35.4-59-21-8.5 2 6.5-17 48-11.5-6.667-12.667-27.3-32.1-56.5-8.5-8.5 6-8-12.5 13.5-15-2.333-6.667-8.6-18.9-15-14.5-4.275 2.939-5.409 7.877-6.301 11.762-.777 3.385-1.371 5.971-3.699 5.738-5-.5-5-20 10-23-18.402-8.5-50.565-13.7-32 33.5v4Zm33.5 62c.167 4.166 1.4 13.2 5 16 4.5 3.5-1.5-17.5-5-16Zm137.089-327.332c13.267.147 41.617 4.594 48.857 21.197-5.25-2.981-16.51-7.889-19.56-3.678-.75 1.023 2.4 3.485 7.22 7.247 14.23 11.123 43 33.618 28.86 63.968-6.42-16.997-22.37-49.918-34.86-45.632-5.71 1.958-1.83 5.827 4.34 12 10.74 10.723 28.43 28.4 14.97 55.091.23-6.005-.44-17.975-5-17.82-2 .068-1.67 3.672-1.2 8.784.88 9.401 2.22 23.902-9.64 30.9 2.09-12.269 3.47-36.502-7.79-35.276-6.07.66-4.45 4.02-1.81 9.507 3.48 7.24 8.75 18.184.49 31.52-9.35-4.713-25.54-19.122-15.547-39.049 4.987-6.883-9.143-14.651-18.611 35.912-7.653-10.174-15.857-38.279 12.559-69.317 6.901-6.114-9.019-7.152-31.361 39.022-10.034-8.307-20.561-31.956 17.612-60.098 6.607-5.71-17.58-4.711-37.476 32.122-6.345-12.83-9.976-40.941 26.268-50.74 9.846-3.363-5.429-13.812-20.068 2.131-4.029-5.801-10.259-18.053-2.941-20.654 4.889-1.737 9.553.242 13.222 1.799 3.197 1.356 5.639 2.393 6.817.371 2.528-4.342-13.262-15.784-24.493-5.397 3.914-19.889 18.574-48.985 45.903-6.257l3.239 2.347Zm27.027 68.363c3.28 2.58 9.87 8.879 10.03 13.437.19 5.697-13.29-11.483-10.03-13.437Z" clip-rule="evenodd"/><path fill="#1A1F1A" fill-rule="evenodd" d="M910.586 385.717c-13.138-1.88-41.835-1.813-51.519 13.491 5.643-2.144 17.523-5.276 19.895-.649.577 1.125-2.91 3.077-8.242 6.061-15.759 8.82-47.633 26.658-38.285 58.812 8.934-15.818 29.724-45.919 41.414-39.776 5.339 2.806.922 6.038-6.126 11.196-12.243 8.96-32.426 23.729-23.197 52.162.685-5.971 3.175-17.698 7.656-16.849 1.973.374 1.092 3.884-.157 8.864-2.298 9.157-5.843 23.283 4.819 32.011-.2-12.446 2.134-36.606 13.077-33.675 5.897 1.579 3.787 4.652.341 9.672-4.547 6.624-11.421 16.636-5.296 31.076 9.956-3.231 28.158-14.999 21.325-36.218-3.878-7.564 11.272-13.084 12.91 38.332 9.117-8.886 21.514-35.41-1.831-70.422-5.886-7.096 10.006-5.691 25.037 43.352 11.185-6.677 25.198-28.443-8.231-62.082-5.658-6.651 18.093-1.972 32.133 37.466 8.23-11.711 16.109-38.938-18.214-54.155-9.217-4.826 7.473-12.822 19.507 5.17 4.868-5.118 12.895-16.276 6.059-19.964-4.566-2.463-9.477-1.219-13.341-.24-3.367.853-5.939 1.504-6.794-.674-1.836-4.677 15.516-13.574 25.029-1.595-.832-20.253-10.878-51.246-44.409-13.191l-3.56 1.825Zm-37.149 63.436c-3.632 2.049-11.108 7.268-11.957 11.749-1.061 5.601 14.888-9.319 11.957-11.749Zm76.076 130.045c-14.4-.8-14.333 26.333-12.5 40 2.047-4.91 12.461-10.154 18.643-13.268 1.374-.691 2.538-1.278 3.356-1.732 4.5-2.5 11.5 2.5 7 4s-24.5 11.5-25 21.5c-.4 8 8.833 22 13.5 28-1.69-17.741 13.392-31.199 19.621-36.758 1.145-1.022 1.991-1.776 2.379-2.242 2.5-3 8-2 3.5 2-18.5 15-20.5 32.5-21 40-.4 6 10.166 13.167 15.5 16-.334 1-.7 3.8.5 7 1.5 4 20 18 18 15.5s-1-46 10.998-41.5c8.61 3.227-.53 22.134-6.016 33.498-2.166 4.485-3.765 7.795-3.482 8.502.8 2 7.998 5.833 11.498 7.5 5.5-1 17.2-5.1 20-13.5 2.02-6.043.22-15.398-1.09-22.251-.97-5.055-1.68-8.749-.41-8.749h6.5c-3.5-4.167-10.8-15.2-12-26-1.5-13.5-37.998-47.5-40.998-48.5-2.4-.8-4 1.667-4.5 3-2-3.667-9.599-11.2-23.999-12Zm49.499 57.5c-4 3.2-9.334 10.667-11.5 14 0-7 6-17.5 8-19.5s8.498 1.5 3.5 5.5Zm-31-38.5c-3.334 0-10-.7-10-3.5 0-3.5 5-2 10 3.5Z" clip-rule="evenodd"/><path fill="#1A1F1A" d="M924.498 720c-10.8 30.4-4.5 77.667 0 97.5.855 4 5.502 2 9.502-9 4-11-8.63-57.663-3.5-77 6.5-24.5 41.305-115.276 44-131 3-17.5-1.393-40.462-6.5-96-4-43.5-4.5-63-16.5-104-9.6-32.8-8.5-128.833-3.5-168 1.333-5.667 2.6-15.1-3-7.5-7 9.5-14.5 154 0 184 14.239 29.459 16.02 126.232 25 162 8.159 32.5-32.002 111-45.502 149Z"/><path fill="#1A1F1A" d="M933.499 659c8.8 24 14.333 105 16 142.5 0 3 2.8 7.2 14.001 0 14.001-9-14.001-46-14.001-90.5S920.5 573 922.5 544s0-158.5-12.001-157.5 6 106.5 0 136.5 12 106 23 136Z"/><path fill="#1A1F1A" d="M923.5 785c-13.2-2.4-47.833 1-63.5 3 24.8 26 97.333 12.5 130.5 2.5-.333-.833-4.1-3.1-16.5-5.5-15.5-3-34 3-50.5 0Z"/><path fill="#1A1F1A" d="M908.58 676.367c-2.419-48-49.15-94.049-72.213-111.074-3.024-2.296-9.452 9.421 3.025 16.859 78.262 77.356 49.528 94.215 60.871 126.447 9.073 25.785 15.879 77.851 18.147 100.661 2.521 2.975 7.94 4.264 9.452-14.381 1.891-23.305-16.257-58.512-19.282-118.512Z"/><path fill="#F6E6D5" d="M993.498 788c.157-4.857-8.405-2.58-13.001-1-12.891 4.434-28.75 10.308-55.141 10.308-24.6 0-46.43-5.103-58.987-8.788-5.11-1.5-10.535-2.305-9.871 2.98 2.04 16.24 5.944 51.883 9.141 80.808 4.024 36.414 13.799 69.467 16.328 77.614.393 1.264 1.15 2.357 2.315 2.986 4.102 2.217 16.168 6.972 42.357 5.4C952.165 956.776 964 956.5 967.5 955c2.343-1.004 5.628-2.335 6-3.5 3.757-11.781 12.979-69.48 15.783-105.5 1.534-19.698 3.973-50.556 4.215-58Z"/><g><rect width="704" height="470" x="176" y="301" fill="#1A1F1A" rx="28"/><animateTransform additive="sum" attributeName="transform" calcMode="spline" dur="4s" keySplines="0.45,0,0.55,1;0.45,0,0.55,1" repeatCount="indefinite" type="scale" values="1 1; 1.005 1.02; 1 1;"/></g><g><path fill="#F6E6D5" d="M172 305c0-8.837 7.163-16 16-16h648c8.837 0 16 7.163 16 16v414c0 8.837-7.163 16-16 16H188c-8.837 0-16-7.163-16-16V305Z"/><path fill="#1A1F1A" fill-rule="evenodd" d="M188 277h648c15.464 0 28 12.536 28 28v414c0 15.464-12.536 28-28 28H188c-15.464 0-28-12.536-28-28V305c0-15.464 12.536-28 28-28Zm0 12c-8.837 0-16 7.163-16 16v414c0 8.837 7.163 16 16 16h648c8.837 0 16-7.163 16-16V305c0-8.837-7.163-16-16-16H188Z" clip-rule="evenodd"/><rect width="64" height="63.857" x="262" y="378.3" fill="#1A1F1A" rx="8"/><rect width="64" height="64" x="254" y="371" fill="#F6E6D5" rx="8"/><mask id="d" width="64" height="64" x="254" y="371" maskUnits="userSpaceOnUse" style="mask-type:alpha"><rect width="64" height="64" x="254" y="371" fill="#0D1B2A" rx="8"/></mask><g mask="url(#d)"><path fill="#1A1F1A" d="M254 371h64v32h-64z"/><path fill="#F1AA5D" d="m254 403 16-32v32l16-32v32l16-32v32l16-32v32h-64Z"/></g><path fill="#1A1F1A" fill-rule="evenodd" d="M262 373c-.54 0-1.061.071-1.555.203a2 2 0 0 1-1.033-3.864A9.983 9.983 0 0 1 262 369h2a2 2 0 1 1 0 4h-2Zm8-2a2 2 0 0 1 2-2h4a2 2 0 1 1 0 4h-4a2 2 0 0 1-2-2Zm12 0a2 2 0 0 1 2-2h4a2 2 0 1 1 0 4h-4a2 2 0 0 1-2-2Zm12 0a2 2 0 0 1 2-2h4a2 2 0 1 1 0 4h-4a2 2 0 0 1-2-2Zm12 0a2 2 0 0 1 2-2h2c.892 0 1.76.117 2.588.339a2 2 0 0 1-1.033 3.864A6.015 6.015 0 0 0 310 373h-2a2 2 0 0 1-2-2Zm-51.213 3.997a2 2 0 0 1 1.416 2.448A6.015 6.015 0 0 0 256 379v2a2 2 0 1 1-4 0v-2c0-.892.117-1.76.339-2.588a1.998 1.998 0 0 1 2.448-1.415Zm62.426 0a1.998 1.998 0 0 1 2.448 1.415c.222.828.339 1.696.339 2.588v2a2 2 0 1 1-4 0v-2c0-.54-.071-1.061-.203-1.555a2 2 0 0 1 1.416-2.448ZM254 387a2 2 0 0 1 2 2v4a2 2 0 1 1-4 0v-4a2 2 0 0 1 2-2Zm64 0a2 2 0 0 1 2 2v4a2 2 0 1 1-4 0v-4a2 2 0 0 1 2-2Zm-64 12a2 2 0 0 1 2 2v4a2 2 0 1 1-4 0v-4a2 2 0 0 1 2-2Zm64 0a2 2 0 0 1 2 2v4a2 2 0 1 1-4 0v-4a2 2 0 0 1 2-2Zm-64 12a2 2 0 0 1 2 2v4a2 2 0 1 1-4 0v-4a2 2 0 0 1 2-2Zm64 0a2 2 0 0 1 2 2v4a2 2 0 1 1-4 0v-4a2 2 0 0 1 2-2Zm-64 12a2 2 0 0 1 2 2v2c0 .54.071 1.061.203 1.555a2 2 0 0 1-3.864 1.033A9.983 9.983 0 0 1 252 427v-2a2 2 0 0 1 2-2Zm64 0a2 2 0 0 1 2 2v2c0 .892-.117 1.76-.339 2.588a2 2 0 0 1-3.864-1.033A6.015 6.015 0 0 0 316 427v-2a2 2 0 0 1 2-2Zm-60.003 11.213a2 2 0 0 1 2.448-1.416A6.015 6.015 0 0 0 262 433h2a2 2 0 1 1 0 4h-2c-.892 0-1.76-.117-2.588-.339a1.998 1.998 0 0 1-1.415-2.448Zm56.006 0a1.998 1.998 0 0 1-1.415 2.448A9.983 9.983 0 0 1 310 437h-2a2 2 0 1 1 0-4h2c.54 0 1.061-.071 1.555-.203a2 2 0 0 1 2.448 1.416ZM270 435a2 2 0 0 1 2-2h4a2 2 0 1 1 0 4h-4a2 2 0 0 1-2-2Zm12 0a2 2 0 0 1 2-2h4a2 2 0 1 1 0 4h-4a2 2 0 0 1-2-2Zm12 0a2 2 0 0 1 2-2h4a2 2 0 1 1 0 4h-4a2 2 0 0 1-2-2Zm-20-16.108c0 .93-1.192 1.001-1.998.535a3.977 3.977 0 0 0-2.002-.535c-.73 0-1.414.194-2.002.535-.806.466-1.998.395-1.998-.535a3.996 3.996 0 0 1 4-3.992c2.209 0 4 1.787 4 3.992Zm32 0c0 .93-1.192 1.001-1.998.535a3.977 3.977 0 0 0-2.002-.535c-.73 0-1.414.194-2.002.535-.806.466-1.998.395-1.998-.535a3.996 3.996 0 0 1 4-3.992c2.209 0 4 1.787 4 3.992Z" clip-rule="evenodd"/><path fill="#1A1F1A" d="M269.74 526.05v4.137h-9.665v5.269h8.986v4.138h-8.986V549H255v-22.95h14.74ZM295.992 549l-3.911-9.212h-2.715V549h-5.076v-22.95h8.373c2.564 0 4.558.614 5.98 1.842 1.422 1.228 2.133 2.963 2.133 5.204 0 2.737-1.282 4.666-3.846 5.787L301.52 549h-5.528Zm-6.626-19.233v6.659h2.65c2.306 0 3.459-1.099 3.459-3.297 0-1.099-.302-1.929-.905-2.489-.582-.582-1.433-.873-2.554-.873h-2.65Zm40.669.162h-4.914v15.192h4.914V549h-14.87v-3.879h4.849v-15.192h-4.849v-3.879h14.87v3.879Zm30.163-3.879v4.04h-9.213v5.205h8.663v3.943h-8.663v5.722h9.439V549H345.91v-22.95h14.288Zm25.702 12.283a26.055 26.055 0 0 1 1.099 3.524h.194c-.194-1.056-.291-2.349-.291-3.879V526.05h4.493V549h-5.139l-5.463-12.736c-.323-.732-.658-1.842-1.002-3.329h-.227c.194.926.291 2.058.291 3.394V549h-4.493v-22.95h5.463l5.075 12.283ZM405.719 549v-22.95h8.049c2.845 0 5.075 1.002 6.692 3.006 1.637 2.004 2.456 4.73 2.456 8.178 0 3.577-.84 6.433-2.521 8.566-1.659 2.134-3.89 3.2-6.691 3.2h-7.985Zm5.108-3.879h2.359c1.466 0 2.586-.689 3.362-2.068.798-1.38 1.196-3.319 1.196-5.819 0-4.849-1.497-7.273-4.493-7.273h-2.424v15.16Zm70.315 1.649c-1.466 1.853-3.664 2.78-6.595 2.78-2.93 0-5.139-.927-6.626-2.78-1.466-1.875-2.198-4.526-2.198-7.952v-2.586c0-3.426.732-6.066 2.198-7.92 1.487-1.875 3.696-2.812 6.626-2.812 2.931 0 5.129.937 6.595 2.812 1.487 1.854 2.23 4.494 2.23 7.92v2.586c0 3.426-.743 6.077-2.23 7.952Zm-9.375-2.78c.582 1.034 1.509 1.552 2.78 1.552 1.272 0 2.188-.518 2.748-1.552.582-1.056.873-2.715.873-4.978v-2.974c0-2.263-.291-3.911-.873-4.946-.56-1.056-1.476-1.584-2.748-1.584-1.271 0-2.198.528-2.78 1.584-.56 1.035-.84 2.683-.84 4.946v2.974c0 2.263.28 3.922.84 4.978Zm41.09-17.94v4.137h-9.666v5.269h8.987v4.138h-8.987V549h-5.075v-22.95h14.741ZM288.033 576C267.52 576 252 591.804 252 609.787c0 13.842 9.442 22.344 22.684 22.344 11.07 0 19.536-5.559 24.528-15.913h-.651c-4.667 5.777-8.9 8.174-14.978 8.174-6.946 0-12.59-4.686-12.59-14.932 0-14.604 9.009-31.607 17.692-31.607 3.473 0 4.884 2.616 4.884 6.321 0 5.014-2.605 9.701-7.164 9.701-.759 0-1.845-.218-2.496-.654.543 4.25 4.667 6.43 8.466 6.43 6.512 0 11.83-4.686 11.83-11.444 0-7.847-7.163-12.207-16.172-12.207Zm16.089 34.005c.108 14.06 10.636 22.126 24.42 22.126 18.234 0 34.622-14.169 34.622-34.006 0-14.06-10.527-22.125-24.311-22.125-18.342 0-34.731 14.169-34.731 34.005Zm41.026-21.798c-.109 4.905-1.303 11.989-3.582 20.491-3.364 12.425-8.031 21.58-13.458 21.58-4.45 0-5.861-4.469-5.861-10.354 0-5.014 1.302-11.989 3.582-20.491 3.364-12.534 7.923-21.58 13.458-21.58 4.45 0 5.861 4.469 5.861 10.354Zm54.283 44.142c10.528 0 18.776-6.431 20.187-23.542h-.217c-1.953 5.34-7.706 6.539-12.59 6.539-11.287 0-18.559-5.341-28.327-5.341-1.411 0-2.822.218-4.124.545 4.992-2.179 11.613-3.814 18.776-5.013 16.28-2.943 32.126-6.976 32.126-21.472 0-4.359-2.93-7.193-6.62-7.193-3.365 0-5.97 1.853-7.272 5.559 5.535-.981 10.745 1.852 10.745 6.321 0 2.507-1.628 3.706-3.691 3.706-10.31 0-14.109-16.458-27.459-16.458-10.093 0-16.497 7.738-20.947 24.196h.217c2.714-5.558 8.466-6.539 12.916-6.539 11.07 0 17.582 5.013 27.133 5.013a9.72 9.72 0 0 0 3.691-.763c-5.644 2.616-13.567 4.578-22.033 5.886-19.428 3.052-29.413 8.828-29.413 20.054 0 5.232 3.365 8.284 7.489 8.284 3.69 0 6.512-2.071 7.706-5.777-5.752 1.09-12.373-.436-12.373-5.776 0-2.943 2.062-4.578 4.667-4.578 11.071 0 15.412 16.349 29.413 16.349Zm90.582-55.259h-19.102l-6.621 26.812c-2.93 11.989-9.008 17.33-14.218 17.33-2.822 0-3.798-1.744-3.798-4.251 0-1.199.108-2.398.434-3.706l9.008-36.185h-25.071v.218c2.713 1.962 4.015 3.379 4.015 6.103 0 1.308-.325 2.943-.976 5.45l-5.753 23.433c-.434 1.744-.759 3.488-.759 5.123 0 7.302 4.45 13.297 13.458 13.297 10.528 0 16.606-7.521 21.273-17.33l-3.039 12.643c-4.559 18.856-8.9 28.12-17.366 28.12-5.101 0-7.814-3.706-7.814-8.501 0-4.578 2.713-7.521 6.186-7.957-2.279-2.615-5.535-4.359-10.094-4.359-5.86 0-10.636 3.705-10.636 9.155 0 8.937 10.745 13.515 22.358 13.515 20.73 0 31.801-13.079 37.987-37.384l10.528-41.526Zm56.616-1.09c-20.513 0-36.034 15.804-36.034 33.787 0 13.842 9.443 22.344 22.684 22.344 11.071 0 19.536-5.559 24.529-15.913h-.651c-4.667 5.777-8.9 8.174-14.978 8.174-6.946 0-12.59-4.686-12.59-14.932 0-14.604 9.008-31.607 17.691-31.607 3.473 0 4.884 2.616 4.884 6.321 0 5.014-2.605 9.701-7.163 9.701-.76 0-1.845-.218-2.497-.654.543 4.25 4.667 6.43 8.466 6.43 6.512 0 11.83-4.686 11.83-11.444 0-7.847-7.163-12.207-16.171-12.207Zm16.088 34.005c.109 14.06 10.637 22.126 24.42 22.126 18.234 0 34.623-14.169 34.623-34.006 0-14.06-10.528-22.125-24.312-22.125-18.342 0-34.731 14.169-34.731 34.005Zm41.026-21.798c-.108 4.905-1.302 11.989-3.581 20.491-3.365 12.425-8.032 21.58-13.459 21.58-4.45 0-5.861-4.469-5.861-10.354 0-5.014 1.303-11.989 3.582-20.491 3.365-12.534 7.923-21.58 13.458-21.58 4.45 0 5.861 4.469 5.861 10.354ZM644 620.905c0-6.104-4.667-11.009-10.853-11.009-6.187 0-10.854 4.905-10.854 11.009 0 6.103 4.667 11.008 10.854 11.008 6.186 0 10.853-4.905 10.853-11.008Z"/><animateTransform attributeName="transform" attributeType="XML" calcMode="spline" dur="4s" keySplines="0.45,0,0.55,1;0.45,0,0.55,1" repeatCount="indefinite" type="translate" values="0,0;-4,-16;0,0;"/></g></g><defs><clipPath id="a"><path fill="#fff" d="M0 0h1024v1024H0z"/></clipPath></defs></svg>